<mxfile host="app.diagrams.net" modified="2023-12-05T10:39:32.347Z" agent="Mozilla/5.0 (Windows NT 10.0; Win64; x64) AppleWebKit/537.36 (KHTML, like Gecko) Chrome/119.0.0.0 Safari/537.36" etag="TTCiMuXOr5V8sJTufAQd" version="22.1.5" type="github">
  <diagram name="Page-1" id="M9G-T7zKxAfByAplEG5L">
    <mxGraphModel dx="1356" dy="760" grid="1" gridSize="10" guides="1" tooltips="1" connect="1" arrows="1" fold="1" page="1" pageScale="1" pageWidth="1169" pageHeight="827" math="0" shadow="0">
      <root>
        <mxCell id="0" />
        <mxCell id="1" parent="0" />
        <mxCell id="r_Fk-DtVDr_b0cE1U8mK-2" value="" style="rounded=0;whiteSpace=wrap;html=1;" vertex="1" parent="1">
          <mxGeometry x="85" y="390" width="125" height="80" as="geometry" />
        </mxCell>
        <mxCell id="r_Fk-DtVDr_b0cE1U8mK-3" value="" style="ellipse;whiteSpace=wrap;html=1;aspect=fixed;" vertex="1" parent="1">
          <mxGeometry x="280" y="67.5" width="110" height="110" as="geometry" />
        </mxCell>
        <mxCell id="r_Fk-DtVDr_b0cE1U8mK-4" value="" style="rounded=0;whiteSpace=wrap;html=1;" vertex="1" parent="1">
          <mxGeometry x="90" y="280" width="120" height="80" as="geometry" />
        </mxCell>
      </root>
    </mxGraphModel>
  </diagram>
</mxfile>
